<mxfile host="app.diagrams.net" modified="2021-04-09T16:16:58.319Z" agent="5.0 (Windows NT 10.0; Win64; x64) AppleWebKit/537.36 (KHTML, like Gecko) Chrome/89.0.4389.114 Safari/537.36" etag="sg3-ZJirck3fE__UDQTS" version="14.5.9" type="github">
  <diagram id="ggzkMVkWqvCONG16IYfw" name="Page-1">
    <mxGraphModel dx="2500" dy="829" grid="1" gridSize="10" guides="1" tooltips="1" connect="1" arrows="1" fold="1" page="1" pageScale="1" pageWidth="827" pageHeight="1169" math="0" shadow="0">
      <root>
        <mxCell id="0" />
        <mxCell id="1" parent="0" />
        <mxCell id="wd7iylGJ8wgzjHyeTR4_-1" value="" style="shape=parallelogram;perimeter=parallelogramPerimeter;whiteSpace=wrap;html=1;fixedSize=1;dashed=1;" vertex="1" parent="1">
          <mxGeometry x="350" y="150" width="150" height="80" as="geometry" />
        </mxCell>
        <mxCell id="wd7iylGJ8wgzjHyeTR4_-2" value="th_startRobot" style="text;html=1;align=center;verticalAlign=middle;resizable=0;points=[];autosize=1;strokeColor=none;" vertex="1" parent="1">
          <mxGeometry x="390" y="130" width="90" height="20" as="geometry" />
        </mxCell>
        <mxCell id="wd7iylGJ8wgzjHyeTR4_-3" value="" style="shape=parallelogram;perimeter=parallelogramPerimeter;whiteSpace=wrap;html=1;fixedSize=1;dashed=1;" vertex="1" parent="1">
          <mxGeometry x="414" y="310" width="150" height="80" as="geometry" />
        </mxCell>
        <mxCell id="wd7iylGJ8wgzjHyeTR4_-4" value="th_move" style="text;html=1;align=center;verticalAlign=middle;resizable=0;points=[];autosize=1;strokeColor=none;" vertex="1" parent="1">
          <mxGeometry x="465" y="290" width="60" height="20" as="geometry" />
        </mxCell>
        <mxCell id="wd7iylGJ8wgzjHyeTR4_-5" value="" style="shape=parallelogram;perimeter=parallelogramPerimeter;whiteSpace=wrap;html=1;fixedSize=1;dashed=1;" vertex="1" parent="1">
          <mxGeometry x="330" y="435" width="150" height="80" as="geometry" />
        </mxCell>
        <mxCell id="wd7iylGJ8wgzjHyeTR4_-6" value="th_battery" style="text;html=1;align=center;verticalAlign=middle;resizable=0;points=[];autosize=1;strokeColor=none;" vertex="1" parent="1">
          <mxGeometry x="390" y="415" width="70" height="20" as="geometry" />
        </mxCell>
        <mxCell id="wd7iylGJ8wgzjHyeTR4_-7" value="" style="shape=parallelogram;perimeter=parallelogramPerimeter;whiteSpace=wrap;html=1;fixedSize=1;dashed=1;" vertex="1" parent="1">
          <mxGeometry x="290" y="780" width="150" height="80" as="geometry" />
        </mxCell>
        <mxCell id="wd7iylGJ8wgzjHyeTR4_-8" value="th_openComRobot" style="text;html=1;align=center;verticalAlign=middle;resizable=0;points=[];autosize=1;strokeColor=none;" vertex="1" parent="1">
          <mxGeometry x="320" y="760" width="120" height="20" as="geometry" />
        </mxCell>
        <mxCell id="wd7iylGJ8wgzjHyeTR4_-64" style="edgeStyle=orthogonalEdgeStyle;rounded=0;orthogonalLoop=1;jettySize=auto;html=1;exitX=0.75;exitY=0;exitDx=0;exitDy=0;entryX=0;entryY=0.25;entryDx=0;entryDy=0;startArrow=ERmany;startFill=0;endArrow=block;endFill=1;" edge="1" parent="1" source="wd7iylGJ8wgzjHyeTR4_-10" target="wd7iylGJ8wgzjHyeTR4_-62">
          <mxGeometry relative="1" as="geometry">
            <Array as="points">
              <mxPoint x="494" y="539" />
            </Array>
          </mxGeometry>
        </mxCell>
        <mxCell id="wd7iylGJ8wgzjHyeTR4_-10" value="" style="shape=parallelogram;perimeter=parallelogramPerimeter;whiteSpace=wrap;html=1;fixedSize=1;dashed=1;" vertex="1" parent="1">
          <mxGeometry x="381.76" y="635" width="150" height="80" as="geometry" />
        </mxCell>
        <mxCell id="wd7iylGJ8wgzjHyeTR4_-11" value="th_startRobotWD" style="text;html=1;align=center;verticalAlign=middle;resizable=0;points=[];autosize=1;strokeColor=none;" vertex="1" parent="1">
          <mxGeometry x="381.76" y="600" width="110" height="20" as="geometry" />
        </mxCell>
        <mxCell id="wd7iylGJ8wgzjHyeTR4_-13" value="Robot" style="text;html=1;align=center;verticalAlign=middle;resizable=0;points=[];autosize=1;strokeColor=none;" vertex="1" parent="1">
          <mxGeometry x="-110" y="465" width="50" height="20" as="geometry" />
        </mxCell>
        <mxCell id="wd7iylGJ8wgzjHyeTR4_-18" value="" style="whiteSpace=wrap;html=1;aspect=fixed;" vertex="1" parent="1">
          <mxGeometry x="-49" y="420" width="100" height="100" as="geometry" />
        </mxCell>
        <mxCell id="wd7iylGJ8wgzjHyeTR4_-19" value="" style="endArrow=ERoneToMany;html=1;entryX=0;entryY=0.5;entryDx=0;entryDy=0;endFill=0;" edge="1" parent="1">
          <mxGeometry width="50" height="50" relative="1" as="geometry">
            <mxPoint x="110" y="470" as="sourcePoint" />
            <mxPoint x="340" y="469.9999999999998" as="targetPoint" />
          </mxGeometry>
        </mxCell>
        <mxCell id="wd7iylGJ8wgzjHyeTR4_-20" value="" style="endArrow=ERoneToMany;startArrow=block;html=1;exitX=1;exitY=0.5;exitDx=0;exitDy=0;entryX=0;entryY=0.25;entryDx=0;entryDy=0;startFill=1;endFill=0;" edge="1" parent="1" source="wd7iylGJ8wgzjHyeTR4_-18" target="wd7iylGJ8wgzjHyeTR4_-1">
          <mxGeometry width="50" height="50" relative="1" as="geometry">
            <mxPoint x="380" y="520" as="sourcePoint" />
            <mxPoint x="430" y="470" as="targetPoint" />
            <Array as="points">
              <mxPoint x="230" y="470" />
              <mxPoint x="230" y="174" />
            </Array>
          </mxGeometry>
        </mxCell>
        <mxCell id="wd7iylGJ8wgzjHyeTR4_-21" value="" style="endArrow=ERmany;html=1;entryX=0.064;entryY=0.41;entryDx=0;entryDy=0;entryPerimeter=0;endFill=0;" edge="1" parent="1" target="wd7iylGJ8wgzjHyeTR4_-3">
          <mxGeometry width="50" height="50" relative="1" as="geometry">
            <mxPoint x="180" y="470" as="sourcePoint" />
            <mxPoint x="430" y="470" as="targetPoint" />
            <Array as="points">
              <mxPoint x="230" y="470" />
              <mxPoint x="230" y="343" />
            </Array>
          </mxGeometry>
        </mxCell>
        <mxCell id="wd7iylGJ8wgzjHyeTR4_-22" value="" style="endArrow=ERmany;html=1;entryX=0;entryY=0.5;entryDx=0;entryDy=0;endFill=0;" edge="1" parent="1" target="wd7iylGJ8wgzjHyeTR4_-10">
          <mxGeometry width="50" height="50" relative="1" as="geometry">
            <mxPoint x="130" y="470" as="sourcePoint" />
            <mxPoint x="430" y="470" as="targetPoint" />
            <Array as="points">
              <mxPoint x="230" y="470" />
              <mxPoint x="230" y="670" />
            </Array>
          </mxGeometry>
        </mxCell>
        <mxCell id="wd7iylGJ8wgzjHyeTR4_-23" value="SendToRobot()" style="text;html=1;align=center;verticalAlign=middle;resizable=0;points=[];autosize=1;strokeColor=none;" vertex="1" parent="1">
          <mxGeometry x="80" y="450" width="100" height="20" as="geometry" />
        </mxCell>
        <mxCell id="wd7iylGJ8wgzjHyeTR4_-24" value="" style="endArrow=ERmany;html=1;entryX=0;entryY=0.5;entryDx=0;entryDy=0;endFill=0;exitX=0.5;exitY=1;exitDx=0;exitDy=0;startArrow=block;startFill=1;" edge="1" parent="1" source="wd7iylGJ8wgzjHyeTR4_-18" target="wd7iylGJ8wgzjHyeTR4_-7">
          <mxGeometry width="50" height="50" relative="1" as="geometry">
            <mxPoint x="20" y="619.9999999999998" as="sourcePoint" />
            <mxPoint x="290" y="819.9999999999998" as="targetPoint" />
            <Array as="points">
              <mxPoint y="820" />
              <mxPoint x="120" y="820" />
            </Array>
          </mxGeometry>
        </mxCell>
        <mxCell id="wd7iylGJ8wgzjHyeTR4_-25" value="Open()" style="text;html=1;align=center;verticalAlign=middle;resizable=0;points=[];autosize=1;strokeColor=none;" vertex="1" parent="1">
          <mxGeometry x="51" y="800" width="50" height="20" as="geometry" />
        </mxCell>
        <mxCell id="wd7iylGJ8wgzjHyeTR4_-27" value="" style="endArrow=classic;html=1;exitX=1;exitY=0;exitDx=0;exitDy=0;startArrow=ERmany;startFill=0;" edge="1" parent="1" source="wd7iylGJ8wgzjHyeTR4_-10">
          <mxGeometry width="50" height="50" relative="1" as="geometry">
            <mxPoint x="380" y="520" as="sourcePoint" />
            <mxPoint x="750" y="630" as="targetPoint" />
          </mxGeometry>
        </mxCell>
        <mxCell id="wd7iylGJ8wgzjHyeTR4_-28" value="sem_watchDog" style="text;html=1;align=center;verticalAlign=middle;resizable=0;points=[];autosize=1;strokeColor=none;" vertex="1" parent="1">
          <mxGeometry x="580" y="610" width="100" height="20" as="geometry" />
        </mxCell>
        <mxCell id="wd7iylGJ8wgzjHyeTR4_-29" value="" style="endArrow=classic;html=1;startArrow=none;startFill=0;exitX=1;exitY=0.25;exitDx=0;exitDy=0;" edge="1" parent="1" source="wd7iylGJ8wgzjHyeTR4_-3">
          <mxGeometry width="50" height="50" relative="1" as="geometry">
            <mxPoint x="564.0000000000002" y="329.1999999999998" as="sourcePoint" />
            <mxPoint x="760" y="330" as="targetPoint" />
          </mxGeometry>
        </mxCell>
        <mxCell id="wd7iylGJ8wgzjHyeTR4_-30" value="messageToMon" style="text;html=1;align=center;verticalAlign=middle;resizable=0;points=[];autosize=1;strokeColor=none;" vertex="1" parent="1">
          <mxGeometry x="606.05" y="310" width="100" height="20" as="geometry" />
        </mxCell>
        <mxCell id="wd7iylGJ8wgzjHyeTR4_-32" value="" style="endArrow=classic;html=1;startArrow=none;startFill=0;exitX=1;exitY=0.25;exitDx=0;exitDy=0;" edge="1" parent="1" source="wd7iylGJ8wgzjHyeTR4_-1">
          <mxGeometry width="50" height="50" relative="1" as="geometry">
            <mxPoint x="490.34043789097433" y="178.83824843610364" as="sourcePoint" />
            <mxPoint x="706" y="170" as="targetPoint" />
          </mxGeometry>
        </mxCell>
        <mxCell id="wd7iylGJ8wgzjHyeTR4_-33" value="messageToMon" style="text;html=1;align=center;verticalAlign=middle;resizable=0;points=[];autosize=1;strokeColor=none;" vertex="1" parent="1">
          <mxGeometry x="542.0999999999999" y="150" width="100" height="20" as="geometry" />
        </mxCell>
        <mxCell id="wd7iylGJ8wgzjHyeTR4_-34" value="" style="endArrow=classic;html=1;startArrow=none;startFill=0;exitX=1;exitY=0.25;exitDx=0;exitDy=0;" edge="1" parent="1" source="wd7iylGJ8wgzjHyeTR4_-5">
          <mxGeometry width="50" height="50" relative="1" as="geometry">
            <mxPoint x="490.34043789097433" y="458.83824843610364" as="sourcePoint" />
            <mxPoint x="706.05" y="455" as="targetPoint" />
          </mxGeometry>
        </mxCell>
        <mxCell id="wd7iylGJ8wgzjHyeTR4_-35" value="messageToMon" style="text;html=1;align=center;verticalAlign=middle;resizable=0;points=[];autosize=1;strokeColor=none;" vertex="1" parent="1">
          <mxGeometry x="540" y="435" width="100" height="20" as="geometry" />
        </mxCell>
        <mxCell id="wd7iylGJ8wgzjHyeTR4_-36" value="" style="endArrow=classic;html=1;startArrow=none;startFill=0;exitX=1;exitY=0.25;exitDx=0;exitDy=0;" edge="1" parent="1" source="wd7iylGJ8wgzjHyeTR4_-10">
          <mxGeometry width="50" height="50" relative="1" as="geometry">
            <mxPoint x="540.0004378909744" y="698.8382484361036" as="sourcePoint" />
            <mxPoint x="750" y="651" as="targetPoint" />
          </mxGeometry>
        </mxCell>
        <mxCell id="wd7iylGJ8wgzjHyeTR4_-37" value="messageToMon" style="text;html=1;align=center;verticalAlign=middle;resizable=0;points=[];autosize=1;strokeColor=none;" vertex="1" parent="1">
          <mxGeometry x="580" y="630" width="100" height="20" as="geometry" />
        </mxCell>
        <mxCell id="wd7iylGJ8wgzjHyeTR4_-38" value="" style="endArrow=classic;html=1;startArrow=none;startFill=0;exitX=1;exitY=0.5;exitDx=0;exitDy=0;" edge="1" parent="1" source="wd7iylGJ8wgzjHyeTR4_-7">
          <mxGeometry width="50" height="50" relative="1" as="geometry">
            <mxPoint x="440.00043789097435" y="824.4182484361036" as="sourcePoint" />
            <mxPoint x="760" y="821" as="targetPoint" />
          </mxGeometry>
        </mxCell>
        <mxCell id="wd7iylGJ8wgzjHyeTR4_-39" value="messageToMon" style="text;html=1;align=center;verticalAlign=middle;resizable=0;points=[];autosize=1;strokeColor=none;" vertex="1" parent="1">
          <mxGeometry x="491.76" y="795.5799999999999" width="100" height="20" as="geometry" />
        </mxCell>
        <mxCell id="wd7iylGJ8wgzjHyeTR4_-40" value="A" style="ellipse;whiteSpace=wrap;html=1;" vertex="1" parent="1">
          <mxGeometry x="330" y="120" width="60" height="40" as="geometry" />
        </mxCell>
        <mxCell id="wd7iylGJ8wgzjHyeTR4_-41" value="A" style="ellipse;whiteSpace=wrap;html=1;" vertex="1" parent="1">
          <mxGeometry x="365" y="620" width="60" height="40" as="geometry" />
        </mxCell>
        <mxCell id="wd7iylGJ8wgzjHyeTR4_-42" value="100&lt;span style=&quot;color: rgba(0 , 0 , 0 , 0) ; font-family: monospace ; font-size: 0px&quot;&gt;%3CmxGraphModel%3E%3Croot%3E%3CmxCell%20id%3D%220%22%2F%3E%3CmxCell%20id%3D%221%22%20parent%3D%220%22%2F%3E%3CmxCell%20id%3D%222%22%20value%3D%22A%22%20style%3D%22ellipse%3BwhiteSpace%3Dwrap%3Bhtml%3D1%3B%22%20vertex%3D%221%22%20parent%3D%221%22%3E%3CmxGeometry%20x%3D%22330%22%20y%3D%22120%22%20width%3D%2260%22%20height%3D%2240%22%20as%3D%22geometry%22%2F%3E%3C%2FmxCell%3E%3C%2Froot%3E%3C%2FmxGraphModel%3E&lt;/span&gt;" style="ellipse;whiteSpace=wrap;html=1;" vertex="1" parent="1">
          <mxGeometry x="395" y="290" width="60" height="40" as="geometry" />
        </mxCell>
        <mxCell id="wd7iylGJ8wgzjHyeTR4_-43" value="500&lt;span style=&quot;color: rgba(0 , 0 , 0 , 0) ; font-family: monospace ; font-size: 0px&quot;&gt;%3CmxGraphModel%3E%3Croot%3E%3CmxCell%20id%3D%220%22%2F%3E%3CmxCell%20id%3D%221%22%20parent%3D%220%22%2F%3E%3CmxCell%20id%3D%222%22%20value%3D%22A%22%20style%3D%22ellipse%3BwhiteSpace%3Dwrap%3Bhtml%3D1%3B%22%20vertex%3D%221%22%20parent%3D%221%22%3E%3CmxGeometry%20x%3D%22330%22%20y%3D%22120%22%20width%3D%2260%22%20height%3D%2240%22%20as%3D%22geometry%22%2F%3E%3C%2FmxCell%3E%3C%2Froot%3E%3C%2FmxGraphModel%3E&lt;/span&gt;" style="ellipse;whiteSpace=wrap;html=1;" vertex="1" parent="1">
          <mxGeometry x="330" y="415" width="60" height="40" as="geometry" />
        </mxCell>
        <mxCell id="wd7iylGJ8wgzjHyeTR4_-44" value="A" style="ellipse;whiteSpace=wrap;html=1;" vertex="1" parent="1">
          <mxGeometry x="270" y="770" width="60" height="40" as="geometry" />
        </mxCell>
        <mxCell id="wd7iylGJ8wgzjHyeTR4_-48" value="" style="endArrow=classic;html=1;entryX=1;entryY=1;entryDx=0;entryDy=0;" edge="1" parent="1" target="wd7iylGJ8wgzjHyeTR4_-1">
          <mxGeometry width="50" height="50" relative="1" as="geometry">
            <mxPoint x="690" y="221" as="sourcePoint" />
            <mxPoint x="484.9375" y="225.25" as="targetPoint" />
          </mxGeometry>
        </mxCell>
        <mxCell id="wd7iylGJ8wgzjHyeTR4_-49" value="MESSAGE_ROBOT_START_WITHOUT_WD" style="text;html=1;align=center;verticalAlign=middle;resizable=0;points=[];autosize=1;strokeColor=none;" vertex="1" parent="1">
          <mxGeometry x="480" y="230" width="260" height="20" as="geometry" />
        </mxCell>
        <mxCell id="wd7iylGJ8wgzjHyeTR4_-50" value="" style="endArrow=classic;html=1;entryX=1;entryY=0.75;entryDx=0;entryDy=0;" edge="1" parent="1">
          <mxGeometry width="50" height="50" relative="1" as="geometry">
            <mxPoint x="742" y="711" as="sourcePoint" />
            <mxPoint x="517.9375" y="711.2499999999998" as="targetPoint" />
          </mxGeometry>
        </mxCell>
        <mxCell id="wd7iylGJ8wgzjHyeTR4_-51" value="MESSAGE_ROBOT_START_WITH_WD" style="text;html=1;align=center;verticalAlign=middle;resizable=0;points=[];autosize=1;strokeColor=none;" vertex="1" parent="1">
          <mxGeometry x="512" y="715" width="230" height="20" as="geometry" />
        </mxCell>
        <mxCell id="wd7iylGJ8wgzjHyeTR4_-56" value="" style="html=1;shadow=0;dashed=0;align=center;verticalAlign=middle;shape=mxgraph.arrows2.arrow;dy=0;dx=30;notch=14.12;" vertex="1" parent="1">
          <mxGeometry x="531.76" y="355" width="68.24" height="30" as="geometry" />
        </mxCell>
        <mxCell id="wd7iylGJ8wgzjHyeTR4_-57" value="Move" style="text;html=1;align=center;verticalAlign=middle;resizable=0;points=[];autosize=1;strokeColor=none;" vertex="1" parent="1">
          <mxGeometry x="610.94" y="360" width="40" height="20" as="geometry" />
        </mxCell>
        <mxCell id="wd7iylGJ8wgzjHyeTR4_-58" value="" style="html=1;shadow=0;dashed=0;align=center;verticalAlign=middle;shape=mxgraph.arrows2.arrow;dy=0;dx=28.24;notch=14.12;" vertex="1" parent="1">
          <mxGeometry x="507.94" y="665" width="52.06" height="30" as="geometry" />
        </mxCell>
        <mxCell id="wd7iylGJ8wgzjHyeTR4_-59" value="robotStarted" style="text;html=1;align=center;verticalAlign=middle;resizable=0;points=[];autosize=1;strokeColor=none;" vertex="1" parent="1">
          <mxGeometry x="570" y="670" width="80" height="20" as="geometry" />
        </mxCell>
        <mxCell id="wd7iylGJ8wgzjHyeTR4_-60" value="" style="html=1;shadow=0;dashed=0;align=center;verticalAlign=middle;shape=mxgraph.arrows2.arrow;dy=0;dx=28.24;notch=14.12;" vertex="1" parent="1">
          <mxGeometry x="480" y="180" width="60" height="30" as="geometry" />
        </mxCell>
        <mxCell id="wd7iylGJ8wgzjHyeTR4_-61" value="robtStarted" style="text;html=1;align=center;verticalAlign=middle;resizable=0;points=[];autosize=1;strokeColor=none;" vertex="1" parent="1">
          <mxGeometry x="557.1" y="185" width="70" height="20" as="geometry" />
        </mxCell>
        <mxCell id="wd7iylGJ8wgzjHyeTR4_-66" style="edgeStyle=orthogonalEdgeStyle;rounded=0;orthogonalLoop=1;jettySize=auto;html=1;startArrow=none;startFill=0;endArrow=block;endFill=1;entryX=1;entryY=0.75;entryDx=0;entryDy=0;" edge="1" parent="1" source="wd7iylGJ8wgzjHyeTR4_-62" target="wd7iylGJ8wgzjHyeTR4_-18">
          <mxGeometry relative="1" as="geometry">
            <mxPoint x="830" y="554.9999999999998" as="targetPoint" />
          </mxGeometry>
        </mxCell>
        <mxCell id="wd7iylGJ8wgzjHyeTR4_-62" value="" style="shape=parallelogram;perimeter=parallelogramPerimeter;whiteSpace=wrap;html=1;fixedSize=1;dashed=1;" vertex="1" parent="1">
          <mxGeometry x="552" y="515" width="150" height="80" as="geometry" />
        </mxCell>
        <mxCell id="wd7iylGJ8wgzjHyeTR4_-63" value="th_reloadWD" style="text;html=1;align=center;verticalAlign=middle;resizable=0;points=[];autosize=1;strokeColor=none;" vertex="1" parent="1">
          <mxGeometry x="585.94" y="485" width="90" height="20" as="geometry" />
        </mxCell>
        <mxCell id="wd7iylGJ8wgzjHyeTR4_-65" value="1000" style="ellipse;whiteSpace=wrap;html=1;" vertex="1" parent="1">
          <mxGeometry x="540" y="490" width="60" height="40" as="geometry" />
        </mxCell>
        <mxCell id="wd7iylGJ8wgzjHyeTR4_-67" value="reloadWD" style="text;html=1;align=center;verticalAlign=middle;resizable=0;points=[];autosize=1;strokeColor=none;" vertex="1" parent="1">
          <mxGeometry x="360" y="560" width="70" height="20" as="geometry" />
        </mxCell>
        <mxCell id="wd7iylGJ8wgzjHyeTR4_-68" value="" style="html=1;shadow=0;dashed=0;align=center;verticalAlign=middle;shape=mxgraph.arrows2.arrow;dy=0;dx=28.24;notch=14.12;rotation=-90;" vertex="1" parent="1">
          <mxGeometry x="325.88" y="850" width="44.12" height="30" as="geometry" />
        </mxCell>
        <mxCell id="wd7iylGJ8wgzjHyeTR4_-69" value="robot" style="text;html=1;align=center;verticalAlign=middle;resizable=0;points=[];autosize=1;strokeColor=none;" vertex="1" parent="1">
          <mxGeometry x="330" y="880" width="40" height="20" as="geometry" />
        </mxCell>
        <mxCell id="wd7iylGJ8wgzjHyeTR4_-70" value="" style="html=1;shadow=0;dashed=0;align=center;verticalAlign=middle;shape=mxgraph.arrows2.arrow;dy=0;dx=28.24;notch=14.12;rotation=-90;" vertex="1" parent="1">
          <mxGeometry x="552" y="570" width="44.12" height="30" as="geometry" />
        </mxCell>
        <mxCell id="wd7iylGJ8wgzjHyeTR4_-71" value="robotStarted" style="text;html=1;align=center;verticalAlign=middle;resizable=0;points=[];autosize=1;strokeColor=none;" vertex="1" parent="1">
          <mxGeometry x="540" y="600" width="80" height="20" as="geometry" />
        </mxCell>
        <mxCell id="wd7iylGJ8wgzjHyeTR4_-72" value="" style="html=1;shadow=0;dashed=0;align=center;verticalAlign=middle;shape=mxgraph.arrows2.arrow;dy=0;dx=28.24;notch=14.12;rotation=-90;" vertex="1" parent="1">
          <mxGeometry x="390" y="695" width="44.12" height="30" as="geometry" />
        </mxCell>
        <mxCell id="wd7iylGJ8wgzjHyeTR4_-73" value="monitor&lt;span style=&quot;color: rgba(0 , 0 , 0 , 0) ; font-family: monospace ; font-size: 0px&quot;&gt;%3CmxGraphModel%3E%3Croot%3E%3CmxCell%20id%3D%220%22%2F%3E%3CmxCell%20id%3D%221%22%20parent%3D%220%22%2F%3E%3CmxCell%20id%3D%222%22%20value%3D%22%22%20style%3D%22html%3D1%3Bshadow%3D0%3Bdashed%3D0%3Balign%3Dcenter%3BverticalAlign%3Dmiddle%3Bshape%3Dmxgraph.arrows2.arrow%3Bdy%3D0%3Bdx%3D28.24%3Bnotch%3D14.12%3Brotation%3D-90%3B%22%20vertex%3D%221%22%20parent%3D%221%22%3E%3CmxGeometry%20x%3D%22325.88%22%20y%3D%22850%22%20width%3D%2244.12%22%20height%3D%2230%22%20as%3D%22geometry%22%2F%3E%3C%2FmxCell%3E%3CmxCell%20id%3D%223%22%20value%3D%22robot%22%20style%3D%22text%3Bhtml%3D1%3Balign%3Dcenter%3BverticalAlign%3Dmiddle%3Bresizable%3D0%3Bpoints%3D%5B%5D%3Bautosize%3D1%3BstrokeColor%3Dnone%3B%22%20vertex%3D%221%22%20parent%3D%221%22%3E%3CmxGeometry%20x%3D%22330%22%20y%3D%22880%22%20width%3D%2240%22%20height%3D%2220%22%20as%3D%22geometry%22%2F%3E%3C%2FmxCell%3E%3C%2Froot%3E%3C%2FmxGraphModel%3E&lt;/span&gt;" style="text;html=1;align=center;verticalAlign=middle;resizable=0;points=[];autosize=1;strokeColor=none;" vertex="1" parent="1">
          <mxGeometry x="384.12" y="725" width="60" height="20" as="geometry" />
        </mxCell>
        <mxCell id="wd7iylGJ8wgzjHyeTR4_-74" value="" style="html=1;shadow=0;dashed=0;align=center;verticalAlign=middle;shape=mxgraph.arrows2.arrow;dy=0;dx=28.24;notch=14.12;rotation=-90;" vertex="1" parent="1">
          <mxGeometry x="434.12" y="365" width="44.12" height="30" as="geometry" />
        </mxCell>
        <mxCell id="wd7iylGJ8wgzjHyeTR4_-75" value="robotStarted" style="text;html=1;align=center;verticalAlign=middle;resizable=0;points=[];autosize=1;strokeColor=none;" vertex="1" parent="1">
          <mxGeometry x="418.24" y="395" width="80" height="20" as="geometry" />
        </mxCell>
        <mxCell id="wd7iylGJ8wgzjHyeTR4_-76" value="" style="html=1;shadow=0;dashed=0;align=center;verticalAlign=middle;shape=mxgraph.arrows2.arrow;dy=0;dx=28.24;notch=14.12;rotation=-90;" vertex="1" parent="1">
          <mxGeometry x="327.94" y="500" width="44.12" height="30" as="geometry" />
        </mxCell>
        <mxCell id="wd7iylGJ8wgzjHyeTR4_-77" value="robotStarted&lt;span style=&quot;color: rgba(0 , 0 , 0 , 0) ; font-family: monospace ; font-size: 0px&quot;&gt;%3CmxGraphModel%3E%3Croot%3E%3CmxCell%20id%3D%220%22%2F%3E%3CmxCell%20id%3D%221%22%20parent%3D%220%22%2F%3E%3CmxCell%20id%3D%222%22%20value%3D%22%22%20style%3D%22html%3D1%3Bshadow%3D0%3Bdashed%3D0%3Balign%3Dcenter%3BverticalAlign%3Dmiddle%3Bshape%3Dmxgraph.arrows2.arrow%3Bdy%3D0%3Bdx%3D28.24%3Bnotch%3D14.12%3Brotation%3D-90%3B%22%20vertex%3D%221%22%20parent%3D%221%22%3E%3CmxGeometry%20x%3D%22325.88%22%20y%3D%22850%22%20width%3D%2244.12%22%20height%3D%2230%22%20as%3D%22geometry%22%2F%3E%3C%2FmxCell%3E%3CmxCell%20id%3D%223%22%20value%3D%22robot%22%20style%3D%22text%3Bhtml%3D1%3Balign%3Dcenter%3BverticalAlign%3Dmiddle%3Bresizable%3D0%3Bpoints%3D%5B%5D%3Bautosize%3D1%3BstrokeColor%3Dnone%3B%22%20vertex%3D%221%22%20parent%3D%221%22%3E%3CmxGeometry%20x%3D%22330%22%20y%3D%22880%22%20width%3D%2240%22%20height%3D%2220%22%20as%3D%22geometry%22%2F%3E%3C%2FmxCell%3E%3C%2Froot%3E%3C%2FmxGraphModel%3E&lt;/span&gt;" style="text;html=1;align=center;verticalAlign=middle;resizable=0;points=[];autosize=1;strokeColor=none;" vertex="1" parent="1">
          <mxGeometry x="312.06" y="530" width="80" height="20" as="geometry" />
        </mxCell>
        <mxCell id="wd7iylGJ8wgzjHyeTR4_-79" value="" style="html=1;shadow=0;dashed=0;align=center;verticalAlign=middle;shape=mxgraph.arrows2.arrow;dy=0;dx=28.24;notch=14.12;rotation=-90;" vertex="1" parent="1">
          <mxGeometry x="402.94" y="500" width="44.12" height="30" as="geometry" />
        </mxCell>
        <mxCell id="wd7iylGJ8wgzjHyeTR4_-80" value="monitor" style="text;html=1;align=center;verticalAlign=middle;resizable=0;points=[];autosize=1;strokeColor=none;" vertex="1" parent="1">
          <mxGeometry x="397.06" y="530" width="60" height="20" as="geometry" />
        </mxCell>
        <mxCell id="wd7iylGJ8wgzjHyeTR4_-81" value="" style="rounded=0;whiteSpace=wrap;html=1;fillColor=none;dashed=1;" vertex="1" parent="1">
          <mxGeometry x="80" y="80" width="630" height="830" as="geometry" />
        </mxCell>
      </root>
    </mxGraphModel>
  </diagram>
</mxfile>
